<?xml version="1.0" encoding="utf-8"?>
<!-- Generator: Adobe Illustrator 17.1.0, SVG Export Plug-In . SVG Version: 6.00 Build 0)  -->
<!DOCTYPE svg PUBLIC "-//W3C//DTD SVG 1.1//EN" "http://www.w3.org/Graphics/SVG/1.1/DTD/svg11.dtd">
<svg version="1.1" id="Layer_1" xmlns="http://www.w3.org/2000/svg" xmlns:xlink="http://www.w3.org/1999/xlink" x="0px" y="0px"
	 viewBox="0 0 200 250.47" enable-background="new 0 0 200 250.47" xml:space="preserve">
<polygon opacity="0.66" fill="#FCF875" stroke="#F4F2A8" stroke-miterlimit="10" points="35.674,26.405 38.744,45.488 
	47.019,41.554 43.085,49.829 56.943,52.899 43.085,55.969 47.019,64.244 38.744,60.311 35.674,79.394 32.604,60.311 24.329,64.244 
	28.263,55.969 14.405,52.899 28.263,49.829 24.329,41.554 32.604,45.488 "/>
<polygon opacity="0.66" fill="#FCF875" stroke="#F4F2A8" stroke-miterlimit="10" points="165.138,141.612 169.007,165.662 
	179.436,160.705 174.478,171.134 191.943,175.003 174.478,178.872 179.436,189.301 169.007,184.343 165.138,208.394 
	161.269,184.343 150.84,189.301 155.797,178.872 138.332,175.003 155.797,171.134 150.84,160.705 161.269,165.662 "/>
<polygon opacity="0.66" fill="#FCF875" stroke="#F4F2A8" stroke-miterlimit="10" points="167.031,76.405 169.287,90.425 
	175.366,87.535 172.477,93.615 182.658,95.87 172.477,98.126 175.366,104.205 169.287,101.316 167.031,115.336 164.776,101.316 
	158.696,104.205 161.586,98.126 151.405,95.87 161.586,93.615 158.696,87.535 164.776,90.425 "/>
<polygon opacity="0.66" fill="#FCF875" stroke="#F4F2A8" stroke-miterlimit="10" points="147.642,13.9 150.274,30.263 157.37,26.89 
	153.997,33.986 165.88,36.618 153.997,39.25 157.37,46.346 150.274,42.973 147.642,59.336 145.01,42.973 137.914,46.346 
	141.287,39.25 129.405,36.618 141.287,33.986 137.914,26.89 145.01,30.263 "/>
<polygon opacity="0.66" fill="#FCF875" stroke="#F4F2A8" stroke-miterlimit="10" points="93.373,41.405 95.1,52.143 99.756,49.929 
	97.543,54.585 105.341,56.313 97.543,58.04 99.756,62.696 95.1,60.483 93.373,71.221 91.645,60.483 86.989,62.696 89.202,58.04 
	81.405,56.313 89.202,54.585 86.989,49.929 91.645,52.143 "/>
<polygon opacity="0.66" fill="#FCF875" stroke="#F4F2A8" stroke-miterlimit="10" points="39.373,100.405 41.1,111.143 
	45.756,108.929 43.543,113.585 51.341,115.313 43.543,117.04 45.756,121.696 41.1,119.483 39.373,130.221 37.645,119.483 
	32.989,121.696 35.202,117.04 27.405,115.313 35.202,113.585 32.989,108.929 37.645,111.143 "/>
<polygon opacity="0.66" fill="#FCF875" stroke="#F4F2A8" stroke-miterlimit="10" points="26.674,190.405 29.744,209.488 
	38.019,205.554 34.085,213.829 47.943,216.899 34.085,219.969 38.019,228.244 29.744,224.311 26.674,243.394 23.604,224.311 
	15.329,228.244 19.263,219.969 5.405,216.899 19.263,213.829 15.329,205.554 23.604,209.488 "/>
<polygon opacity="0.66" fill="#FCF875" stroke="#F4F2A8" stroke-miterlimit="10" points="115.079,102.405 117.197,115.571 
	122.906,112.857 120.192,118.566 129.753,120.684 120.192,122.802 122.906,128.511 117.197,125.797 115.079,138.963 
	112.961,125.797 107.252,128.511 109.966,122.802 100.405,120.684 109.966,118.566 107.252,112.857 112.961,115.571 "/>
<polygon opacity="0.66" fill="#FCF875" stroke="#F4F2A8" stroke-miterlimit="10" points="99.36,187.405 101.086,198.132 
	105.738,195.921 103.527,200.572 111.316,202.298 103.527,204.023 105.738,208.675 101.086,206.464 99.36,217.191 97.635,206.464 
	92.983,208.675 95.194,204.023 87.405,202.298 95.194,200.572 92.983,195.921 97.635,198.132 "/>
<polygon opacity="0.66" fill="#FCF875" stroke="#F4F2A8" stroke-miterlimit="10" points="67.442,135.405 69.901,150.691 
	76.53,147.54 73.379,154.168 84.479,156.628 73.379,159.087 76.53,165.715 69.901,162.564 67.442,177.85 64.983,162.564 
	58.354,165.715 61.505,159.087 50.405,156.628 61.505,154.168 58.354,147.54 64.983,150.691 "/>
</svg>
